<svg xmlns="http://www.w3.org/2000/svg" viewBox="380 400 380 420">
  <path fill="#0a0a0a" d="M423.38,626.26c-8.41-0.36-20.48,0.3-26.54-6.48c-9.22-10.3-3.51-19.36,1.67-29.62c7.56-14.98,20.47-32.37,23.31-48.88
		c1.07-6.21,0.85-12.56,1.64-18.78c8.94-70.45,74.7-113.66,143.61-98.15c45.42,10.22,79.53,48.45,88.61,93.55l77.22,0.07
		c8.47,1.62,8.32,12.12,0,13.65l-103.55-0.04c-33.61,2.61-32.85,47.54-0.69,49.77c32.68,2.27,69.21-2.91,101.52-0.06
		c4.78,0.42,8.05,2.11,8.52,7.15c1.67,18.16-1.34,38.83,0,57.26c-0.93,5.05-5.43,6.12-9.88,6.46c-36.13,2.81-75.7-2.31-112.2,0.17
		c-26.08,3.67-26.65,39.59-1.93,46.5l118.15,0.33c7.04,1.17,8.24,11.74,1.77,14.64l-118.89,0.33c-31-4.1-45.23-40.07-24.81-64.36
		c3.7-4.4,15.83-12.62,21.43-12.62h111.34v-41.54H621.89c-2.48,0-11.27-3.84-13.73-5.33c-26.23-15.95-24.57-55.16,3.15-68.58
		c2.18-1.05,9.22-3.71,11.27-3.71h17.36c-6.97-34.41-34.77-67.36-68.93-77.14c-55.72-15.96-114.71,12.5-129.73,69.51
		c-3.42,13-2.39,25.99-5.55,38.71c-4.7,18.85-18.48,35.08-26.55,52.44c-1.56,3.36-4.08,6.5,0.39,8.27
		c7.18,2.85,16.79,0.71,24.23,2.33c1.43,0.31,3.51,2.1,4.05,3.44c1.29,3.19,0.84,12.12,0.49,15.8c0.83,10.5-1.01,22.39,0.04,32.71
		c0.69,6.75,5.83,11.85,12.59,12.61c15.07,1.7,36.66-3.95,49.59,4.2c6.72,4.24,14.08,15.34,14.08,23.37v38.13
		c0,0.28-1.75,1.19,0.33,1.02c11.32-12.75,29.1-22.56,28.96-41.84l-0.65-151.81c-33.99-10.46-20.8-62.15,14.26-53.2
		c26.48,6.76,27.06,45.06,0.63,52.52l0.07,158.62c-0.65,7.6-5.7,18.31-10.57,24.16l-48.02,46.98v-75.93c0-2.92-4.64-7.78-7.27-9.07
		c-12.7-6.22-36.38,1.51-51.75-4.77c-7.6-3.11-17.24-13.74-17.24-22.25V626.26z M548.5,511.34c-11.89,2.04-13.38,19.18-1.16,23.31
		c3.82,1.29,5.81,1.15,9.45-0.73C569.07,527.59,563.18,508.82,548.5,511.34z"/>
</svg>
