<?xml version="1.0" encoding="utf-8"?>
<!-- Generator: Adobe Illustrator 26.0.1, SVG Export Plug-In . SVG Version: 6.00 Build 0)  -->
<svg version="1.1" id="Layer_1" xmlns="http://www.w3.org/2000/svg" xmlns:xlink="http://www.w3.org/1999/xlink" x="0px" y="0px"
	 viewBox="0 0 1800 1200" style="enable-background:new 0 0 1800 1200;" xml:space="preserve">
<g>
	<path d="M423.38,626.26c-8.41-0.36-20.48,0.3-26.54-6.48c-9.22-10.3-3.51-19.36,1.67-29.62c7.56-14.98,20.47-32.37,23.31-48.88
		c1.07-6.21,0.85-12.56,1.64-18.78c8.94-70.45,74.7-113.66,143.61-98.15c45.42,10.22,79.53,48.45,88.61,93.55l77.22,0.07
		c8.47,1.62,8.32,12.12,0,13.65l-103.55-0.04c-33.61,2.61-32.85,47.54-0.69,49.77c32.68,2.27,69.21-2.91,101.52-0.06
		c4.78,0.42,8.05,2.11,8.52,7.15c1.67,18.16-1.34,38.83,0,57.26c-0.93,5.05-5.43,6.12-9.88,6.46c-36.13,2.81-75.7-2.31-112.2,0.17
		c-26.08,3.67-26.65,39.59-1.93,46.5l118.15,0.33c7.04,1.17,8.24,11.74,1.77,14.64l-118.89,0.33c-31-4.1-45.23-40.07-24.81-64.36
		c3.7-4.4,15.83-12.62,21.43-12.62h111.34v-41.54H621.89c-2.48,0-11.27-3.84-13.73-5.33c-26.23-15.95-24.57-55.16,3.15-68.58
		c2.18-1.05,9.22-3.71,11.27-3.71h17.36c-6.97-34.41-34.77-67.36-68.93-77.14c-55.72-15.96-114.71,12.5-129.73,69.51
		c-3.42,13-2.39,25.99-5.55,38.71c-4.7,18.85-18.48,35.08-26.55,52.44c-1.56,3.36-4.08,6.5,0.39,8.27
		c7.18,2.85,16.79,0.71,24.23,2.33c1.43,0.31,3.51,2.1,4.05,3.44c1.29,3.19,0.84,12.12,0.49,15.8c0.83,10.5-1.01,22.39,0.04,32.71
		c0.69,6.75,5.83,11.85,12.59,12.61c15.07,1.7,36.66-3.95,49.59,4.2c6.72,4.24,14.08,15.34,14.08,23.37v38.13
		c0,0.28-1.75,1.19,0.33,1.02c11.32-12.75,29.1-22.56,28.96-41.84l-0.65-151.81c-33.99-10.46-20.8-62.15,14.26-53.2
		c26.48,6.76,27.06,45.06,0.63,52.52l0.07,158.62c-0.65,7.6-5.7,18.31-10.57,24.16l-48.02,46.98v-75.93c0-2.92-4.64-7.78-7.27-9.07
		c-12.7-6.22-36.38,1.51-51.75-4.77c-7.6-3.11-17.24-13.74-17.24-22.25V626.26z M548.5,511.34c-11.89,2.04-13.38,19.18-1.16,23.31
		c3.82,1.29,5.81,1.15,9.45-0.73C569.07,527.59,563.18,508.82,548.5,511.34z"/>
	<path d="M968.83,522.81v-49.73h16.93v80.42h-16.93c-10.68-17.15-22.09-34.18-34.92-49.73v49.73h-15.34c-2.36,0-0.53-2.47-0.53-2.65
		v-77.77h16.4C937.47,473.08,962.2,518.45,968.83,522.81z"/>
	<polygon points="1094.75,473.08 1094.75,503.76 1125.43,503.76 1125.43,473.08 1143.42,473.08 1143.42,553.49 1125.43,553.49 
		1125.43,519.63 1094.75,520.69 1094.75,553.49 1076.76,553.49 1076.76,473.08 	"/>
	<path d="M1293.67,493.17c-3.37,0-15.31,3.56-17.39,3.04c-1.76-0.44-1.79-5-4.45-7.12c-5.74-4.57-21.92-4.71-22.34,4.81
		c-0.38,8.7,21.88,9.81,28.59,12.22c15.5,5.57,21.84,18.7,14.39,34.02c-8.44,17.37-42.77,17.67-55.3,4.78
		c-2-2.06-6.39-8.8-6.58-11.46c-0.25-3.54,16.89-6.01,17.55-5.34c0.39,0.4-0.7,5.4,3.87,8.31c6.21,3.94,25.15,4.38,25.77-5.75
		c0.72-11.8-22.87-11.54-31.41-15.06c-22.17-9.16-17.94-38.83,5.43-43.03C1269.69,469.36,1289.93,472.52,1293.67,493.17z"/>
	<path d="M1397,477.68c2.25,1.98,9.48,12.77,7.68,15.41c-2.98,0.28-14.46,3.62-16.24,3.14c-1.74-0.46-1.6-4.06-2.66-5.75
		c-5.36-8.58-28.21-3.81-22.35,6.43c5.6,9.78,35.95,2.99,42.72,22.93c13.45,39.64-57.55,47.3-61.61,11.52
		c0.47-0.68,15.08-3.64,16.22-3.35c0.79,0.21,1.52,6.3,4.46,8.42c8.82,6.36,32.47,1.34,23.13-11.49
		c-6.67-9.16-34.76-2.66-41.99-21.5c-5.73-14.95,4.38-29.45,19.91-31.31C1375.07,471.09,1390.07,471.59,1397,477.68z"/>
	<path d="M1215.37,473.08v13.76h-37.03v16.93h34.92v14.81h-34.92v19.05h38.09c-0.35,2.58,1.12,15.87-1.59,15.87h-54.49v-80.42
		H1215.37z"/>
	<path d="M829.04,493.06c-0.49,0.7-16.19,3.91-16.8,3.3c-0.14-0.14-0.12-2.7-0.82-3.93c-6.56-11.47-28.59-6.47-23.63,4.54
		c2.64,5.87,18.41,6.27,24.67,8.15c15.35,4.63,21.29,13.34,18.57,29.6c-3.78,22.61-42.82,24.37-56.39,10.34
		c-2.34-2.42-8.42-11.91-4.78-14.38c0.64-0.43,14.46-2.84,15.24-2.66c1.17,0.27,1.42,3.86,2.35,5.29c6.43,9.9,32.55,7.38,26.35-7.31
		c-2.74-6.5-21.66-7.44-28.3-9.78c-24.28-8.55-19.33-41.16,5.17-44.09c11.57-1.38,26.47-0.83,34.24,8.91
		C826.74,483.34,830.86,490.46,829.04,493.06z"/>
	<path d="M996.34,582.06c3.93,0.58,11.27-1.27,14.36,0.98l26.91,38.17v-39.15h13.76v63.49l-13.54-0.22
		c-8.88-13.13-17.58-26.9-27.72-38.93v39.15h-13.76V582.06z"/>
	<path d="M825.99,582.06l13.75,0.53c8.58,11.2,15.42,25.25,24.04,36.22c0.68,0.86-0.04,1.93,2.42,1.34v-38.09h13.76v63.49h-14.81
		c-0.22,0-0.51-3.5-1.64-4.15l-23.75-34.99v39.15h-13.76V582.06z"/>
	<path d="M1275.68,582.06c3.03,0.62,11.5-0.97,13.54,0.22c1.2,0.7,12.94,20.1,15.22,23.39c3.9,5.64,7.8,11.59,12.5,16.6v-40.21
		h13.76v63.49c-3.93-0.58-11.27,1.27-14.36-0.98l-27.96-39.22v40.21h-12.7V582.06z"/>
	<path d="M854.56,473.08c1.47,0.91,13.97,26.82,15.88,30.68c1.79,1.34,15.68-30.68,17.45-30.68h18.52l-25.96,45.46
		c-2.16,9.75,1.21,23-0.49,32.31c-0.16,0.88-0.84,2.65-1.59,2.65h-16.4V519.1l-27.51-46.03C837.78,473.8,853,472.11,854.56,473.08z"
		/>
	<path d="M1065.12,473.08v14.81h-25.39v65.6h-17.99v-65.6h-25.39c-0.35-4.91,0.99-10.2-1.06-14.81H1065.12z"/>
	<path d="M954.02,610.63c5.52,33.35-36.7,48.28-56.08,22.75c-13.48-17.76-2.85-49.24,20.59-51.36c16.23-1.47,29.15,2.44,34.43,19.08
		c-4-0.03-10.41,3.1-14.11,2.19c-0.55-0.14-2.57-5.7-6.32-7.68c-17.93-9.45-35.5,15.7-22.34,31.87c8.28,10.18,27.09,8.8,30.07-5.21
		h-17.99v-11.64H954.02z"/>
	<path d="M1404.77,610.63c1.9,15.44-3.88,29.07-19.35,34.08c-28.67,9.3-51.31-20.46-38.21-46.68c11.09-22.19,49.84-22.47,56.51,3.06
		c-3.58-0.16-9.87,3.05-13.04,2c-2.4-0.79-2.85-8.39-13.02-9.31c-16.76-1.51-24.71,16.8-18.12,30.87
		c5.89,12.59,29.18,13.01,31.49-2.39h-17.99l1.06-11.64H1404.77z"/>
	<path d="M1235.47,645.55h-16.93c-1.7-4.57-10.33-21.42-14.3-22.2c-2.68-0.52-6.16,0.29-8.97-0.01c-0.52,0.38,1.06,1.35,1.06,1.58
		v20.63h-13.76v-62.43h31.21c1.97,0,8.02,2.48,9.98,3.78c8.27,5.49,11.17,18.07,5.37,26.39c-1.69,2.43-8.51,6.69-8.37,8.28
		L1235.47,645.55z M1195.27,611.69h17.46c0.95,0,5.19-3.59,5.6-4.98c3.97-13.25-13.59-12.11-22-11.95v15.34
		C1196.32,610.33,1194.74,611.31,1195.27,611.69z"/>
	<path d="M811.18,582.06v11.64h-30.68v12.7h26.98c1.78,0,2.58,12.7,0,12.7h-26.98c0.32,2.29-1.08,14.81,1.59,14.81h29.1
		c-1.38,4.16-1.38,7.48,0,11.64h-43.38v-63.49H811.18z"/>
	<path d="M1166.7,582.06v11.64h-29.63c1.99,4.28,0.76,9.18,1.06,13.76h26.45v11.64h-26.45v14.81h29.63v11.64h-43.38v-63.49H1166.7z"
		/>
	<path d="M1109.56,582.06v11.64h-29.63v13.76h27.51c-0.15,2.12,0.84,11.64-1.59,11.64h-25.92v14.81h29.63v11.64h-42.32v-63.49
		H1109.56z"/>
	<path d="M1328.59,473.08v78.83c0,0.11-1.47,1.59-1.59,1.59h-16.4v-80.42H1328.59z"/>
	<path d="M853.5,682.05c0.72-2.32,8.19-2.18,10.13-0.6l17.38,25.47v-24.87c0-2.21,7.76-1.59,9.52-1.59v44.44l-9.31-0.22l-18.2-26.23
		v26.45h-9.52V682.05z"/>
	<path d="M1320.12,682.05c0.74-2.4,8.13-1.73,10.37-1.37l18.2,27.29v-24.87c0-0.26-0.85-0.63-0.82-1.06
		c0.21-2.54,7.3-1.39,9.28-1.59v44.44c-2.97-0.21-6.57,0.84-9.07-0.98l-17.38-25.47v26.45h-10.58V682.05z"/>
	<path d="M1220.45,679.68c26.2-2.28,32.68,37.61,8.71,44.73C1196.22,734.18,1187.45,682.55,1220.45,679.68z M1230.89,692.46
		c-12.08-12.09-29.77,7.28-18.19,19.77C1225.32,725.85,1242.59,704.17,1230.89,692.46z"/>
	<path d="M1252.4,724.91v-44.44c14.1,0.51,30.76-2.88,37.23,13.03c3.3,8.12,1.55,20.84-5.53,26.61c-1.83,1.49-10.06,4.8-12.13,4.8
		H1252.4z M1261.93,716.44c26.5,4.11,26.52-32.01,0-27.51V716.44z"/>
	<path d="M1407.94,700.57c2.91,38.56-52.91,28.65-39.65-7.38c6.17-16.77,35.15-18.57,38.61,0.49c-0.04,0.4-7.35,1.74-7.79,1.68
		c-0.91-0.13-2.26-6.79-10.75-6.52c-19.1,0.62-15.73,33.61,4.83,27.13c2.61-0.82,5.25-4.1,5.23-6.92l-11.64,0l0.01-8.47H1407.94z"/>
	<path d="M1126.49,692.1c-2.84,0.06-5.99,1.9-8.85,0.91c-1.4-0.48-1.47-2.46-2.48-3.06c-6.82-4.07-16.63,0.57-10.26,5.23
		c6.82,4.99,23.9,0.27,22.71,17.55c-1.11,16.1-34.59,17.4-34.95-0.46c0.51-0.73,7.58-1.56,8.84-1.19c1.04,0.31,0.57,2.62,1.67,3.77
		c3.63,3.77,15.27,2.77,14.79-3.2c-0.59-7.3-22.13-3.2-24.22-15.9C1090.47,675.83,1123.82,673.66,1126.49,692.1z"/>
	<path d="M799.52,692.07c-1.56-0.1-9.18,2.53-9.49,2.16c-0.17-0.2,0.22-2.4-1.04-3.72c-3.15-3.28-12.79-3.1-12.79,2.13
		c0.01,6.22,21.64,2.53,24.15,15.05c4.37,21.78-32.47,23.81-34.65,4.54c10.96-4.59,8,1.16,11.27,3.23
		c4.06,2.58,14.24,2.75,14.08-3.82c-0.18-7.45-22.25-3.28-24.25-15.9C763.72,676.37,797.47,673.42,799.52,692.07z"/>
	<polygon points="951.9,680.47 951.9,698.45 968.83,698.45 968.83,680.47 978.36,680.47 978.36,724.91 968.83,724.91 968.83,706.92 
		951.9,706.92 951.9,724.91 943.44,724.91 943.44,680.47 	"/>
	<path d="M1059.47,684c1.17,1.16,4.52,6.94,3.53,8.1c-2.75,0.03-6.07,1.8-8.77,1.1c-1.72-0.44-5.77-9.25-12.98-3.24
		c-7.03,5.85,12.03,8.31,14.9,9.53c13.67,5.84,9.3,23.43-4.35,25.32c-9.92,1.37-21.56-0.85-22.66-12.6c2.76-0.04,6.05-1.78,8.78-1.1
		c0.92,0.23,1.77,3.13,3.36,4.3c8.09,5.96,17.91-2.92,11.59-7.35c-5.53-3.87-21.87-1.19-22.73-13.32
		C1029.09,679.99,1050.16,674.79,1059.47,684z"/>
	<path d="M1194.21,693.15c-3.04,0.38-6.71,2.91-9.84,2.18c-1.41-0.33-2.91-7.82-12.65-6.18c-17.5,2.95-11.12,33.99,7.4,26.49
		c2.96-1.2,5.68-6.52,6.31-6.66c2.53-0.58,6.02,1.5,8.78,1.12c-2.39,7.1-1.17,8.4-8.45,12.17c-19.92,10.31-39.12-6.46-32.72-27.42
		C1158.86,675.82,1186.81,675,1194.21,693.15z"/>
	<rect x="1246.05" y="582.06" width="13.76" height="63.49"/>
	<rect x="966.72" y="582.06" width="13.76" height="63.49"/>
	<path d="M989.99,682.05c0.25-1.02,1.27-1.09,2.19-1.13c9.34-0.31,19.06,1.41,28.49,0.61c-1.61,1.44-0.68,7.4-1.06,7.4h-20.1v9.52
		h19.05c-0.79,2.49,0.35,5.83-1.59,7.41h-17.46v10.58h21.16v7.41h-30.68V682.05z"/>
	<path d="M821.76,708.5c-0.66-3.22-11.09-18.06-13.54-22.43c-0.55-0.99-3.06-4.93-2.33-5.6c2.85,0.43,8.28-0.92,10.59,0.51
		c2.97,1.83,6.69,15.16,10.55,17.47c1.81-4.29,4.9-12.9,7.53-16.29c1.88-2.43,7.1-2.08,9.97-1.7c1.46,0.2,1.83-0.59,1.55,1.57
		c-2.1,3.87-15.86,24.13-15.86,26.47v16.4h-8.46C821.09,720.04,822.68,713.02,821.76,708.5z"/>
	<polygon points="896.88,688.93 896.89,680.46 934.98,680.46 934.98,688.94 921.21,688.92 920.17,724.91 911.7,724.91 911.7,688.93 
			"/>
	<rect x="1072.53" y="680.47" width="10.58" height="44.44"/>
	<rect x="1300.02" y="680.47" width="9.52" height="44.44"/>
</g>
</svg>
